<svg width="41" height="40" viewBox="0 0 41 40" fill="none" xmlns="http://www.w3.org/2000/svg">
<path d="M24.75 19H23.75V11C23.75 9.9 22.85 9 21.75 9H19.75C18.65 9 17.75 9.9 17.75 11V19H16.75C13.99 19 11.75 21.24 11.75 24V31H29.75V24C29.75 21.24 27.51 19 24.75 19ZM27.75 29H25.75V26C25.75 25.45 25.3 25 24.75 25C24.2 25 23.75 25.45 23.75 26V29H21.75V26C21.75 25.45 21.3 25 20.75 25C20.2 25 19.75 25.45 19.75 26V29H17.75V26C17.75 25.45 17.3 25 16.75 25C16.2 25 15.75 25.45 15.75 26V29H13.75V24C13.75 22.35 15.1 21 16.75 21H24.75C26.4 21 27.75 22.35 27.75 24V29Z" fill="#21005D"/>
</svg>
