<svg width="49" height="48" viewBox="0 0 49 48" fill="none" xmlns="http://www.w3.org/2000/svg">
<g clip-path="url(#clip0_432_45128)">
<path d="M29.6599 18.59L27.2499 17.5L29.6599 16.41L30.7499 14L31.8399 16.41L34.2499 17.5L31.8399 18.59L30.7499 21L29.6599 18.59ZM33.5299 24.72L32.7499 23L31.9699 24.72L30.2499 25.5L31.9699 26.28L32.7499 28L33.5299 26.28L35.2499 25.5L33.5299 24.72ZM28.4899 26.37L30.4299 27.84L27.9299 32.17L25.6899 31.23C25.4899 31.36 25.2699 31.49 25.0499 31.6L24.7499 34H19.7499L19.4499 31.59C19.2299 31.48 19.0199 31.36 18.8099 31.22L16.5699 32.16L14.0699 27.83L16.0099 26.36C15.9999 26.25 15.9999 26.12 15.9999 26C15.9999 25.88 15.9999 25.75 16.0099 25.63L14.0699 24.16L16.5699 19.83L18.8099 20.77C19.0099 20.64 19.2299 20.51 19.4499 20.4L19.7499 18H24.7499L25.0499 20.41C25.2699 20.52 25.4799 20.64 25.6899 20.78L27.9299 19.84L30.4299 24.17L28.4899 25.64C28.4999 25.76 28.4999 25.88 28.4999 26.01C28.4999 26.14 28.4999 26.25 28.4899 26.37ZM25.2499 26C25.2499 24.34 23.9099 23 22.2499 23C20.5899 23 19.2499 24.34 19.2499 26C19.2499 27.66 20.5899 29 22.2499 29C23.9099 29 25.2499 27.66 25.2499 26Z" fill="#21005D"/>
</g>
<defs>
<clipPath id="clip0_432_45128">
<rect x="4.25" y="4" width="40" height="40" rx="8" fill="white"/>
</clipPath>
</defs>
</svg>
